Simulation
nRows=24
nColumns=15
endheader
time  TH_x TH_y TH_z SC_y  SC_z  SC_x  AC_y  AC_z  AC_x  GH_y  GH_z  GH_yy  EL_x  PS_y
0.0  0.000000  0.000000  0.000000  -40.97484877243665  6.293857566463187  5.290427962726946  44.18270530700106  7.497394127547029  0.011658398195710504  174.87058714239078  6.768553662807506  -149.6131022933707  22.651206015083066  120.000000
0.05745  0.000000  0.000000  0.000000  -38.95585165483948  5.668635446014968  3.046995770510865  43.51456418027607  7.692727516646909  0.3018690707095355  173.07375679991932  3.4555328938829293  -149.1802850290113  22.06298766481861  120.000000
0.1149  0.000000  0.000000  0.000000  -37.09409515967896  4.885814236073384  0.7944143132328241  42.934278323928474  7.705565577977044  0.6341929281308214  135.91698720326002  0.3934010879130554  -113.37970321017504  21.65813577148065  120.000000
0.17235  0.000000  0.000000  0.000000  -35.489158665147635  4.010158990284572  -1.376898026352309  42.47741087041132  7.595651240373886  1.03060653622643  4.560413247500759  2.7594184425398587  16.612448065496668  21.51566380964331  120.000000
0.2298  0.000000  0.000000  0.000000  -34.18398143579477  3.124169342726117  -3.4014229897748236  42.16008710527936  7.450732256980826  1.5108616760400817  2.299278392375313  5.740692919129645  17.490170200100636  21.64318720682173  120.000000
0.28725  0.000000  0.000000  0.000000  -33.1827231942055  2.3169720169293635  -5.2456846066254785  41.967511458545  7.3694135895291435  2.0907409682674274  1.572481354353753  8.747634699015077  16.795648855261945  21.976559070231982  120.000000
0.3447  0.000000  0.000000  0.000000  -32.47983197245455  1.6715940056360368  -6.899760109379184  41.86420780961358  7.433185399849167  2.7781893066860714  0.9000300631995407  11.840677483179931  15.985426062550795  22.41499876556616  120.000000
0.40215  0.000000  0.000000  0.000000  -32.07958395325082  1.2490433166585286  -8.348703160471713  41.811570575780436  7.675864668347111  3.555885054608573  0.12748418892231458  15.07546089967704  15.193250695898646  22.847537122316567  120.000000
0.4596  0.000000  0.000000  0.000000  -31.989945969827563  1.0940049678107269  -9.556444689334073  41.78066982624374  8.0708098257213  4.380475894327665  -0.694631172275998  18.483666299251027  14.362731107419256  23.18160100934952  120.000000
0.51705  0.000000  0.000000  0.000000  -32.209358430199494  1.2312621671055872  -10.481974253428671  41.756059422641165  8.559020353177052  5.213397173343899  -1.49040375418888  22.059085651504656  13.432819090542067  23.355317733897696  120.000000
0.5745  0.000000  0.000000  0.000000  -32.722832271347656  1.6647502030498718  -11.113392821646299  41.743037765296364  9.086821281032446  6.050852946363219  -2.1797937932692473  25.75901354942109  12.358480366224113  23.346572961915136  120.000000
0.63195  0.000000  0.000000  0.000000  -33.51539825263849  2.3712399660122427  -11.477015721363772  41.768850089615256  9.622386918388594  6.923748014288378  -2.6736376368096115  29.52471177475431  11.095007796520946  23.167032574851905  120.000000
0.6894  0.000000  0.000000  0.000000  -34.57497325254806  3.3020656747192114  -11.607750538345549  41.87731170765335  10.142586682547336  7.865815807134882  -2.8845568579679717  33.29707140835626  9.594098779177907  22.84806175000146  120.000000
0.74685  0.000000  0.000000  0.000000  -35.886100810593696  4.3912826482004625  -11.526007424756976  42.11584930415907  10.63006196581178  8.887315860048083  -2.7567408999894414  37.01995533057992  7.819663799774009  22.42799374101511  120.000000
0.8043  0.000000  0.000000  0.000000  -37.41853213461699  5.570615892172247  -11.238928296348224  42.51758532360556  11.082176024857676  9.972216684625336  -2.286210211920766  40.63652542024462  5.760557159604478  21.94479685882224  120.000000
0.86175  0.000000  0.000000  0.000000  -39.12142851283466  6.772365713529141  -10.743478737569847  43.083606758391376  11.514937088116238  11.078823761492671  -1.5306132833528874  44.08766406602074  3.443057577941801  21.431892656151252  120.000000
0.9192  0.000000  0.000000  0.000000  -40.91789672707775  7.93529068545483  -10.032054553395938  43.77961404245867  11.95624239916322  12.149525973786053  -0.58940552087219  47.31119219622624  0.928237124253544  20.916848523476883  120.000000
0.97665  0.000000  0.000000  0.000000  -42.70764242271323  9.018587462876926  -9.09118946476204  44.54573476020935  12.42914529648295  13.12727958180618  0.4323191707695479  50.250137785833836  -1.6980978031017468  20.41958257383991  120.000000
1.0341  0.000000  0.000000  0.000000  -44.388128565726205  10.00829170473324  -7.906801713901989  45.307278192067464  12.939815584380288  13.963701496207106  1.4437507442153967  52.86531636146335  -4.323526670280202  19.95228532170643  120.000000
1.09155  0.000000  0.000000  0.000000  -45.882666198550204  10.908962654558826  -6.476851754197224  45.99112676200225  13.472204604904492  14.628788735302047  2.3768897939996196  55.141255055407036  -6.8152651167897496  19.51683769658641  120.000000
1.149  0.000000  0.000000  0.000000  -47.155589819271874  11.727080258537871  -4.822107250510655  46.545021411466806  13.995169106909506  15.1123621271121  3.1905901045983054  57.08235594687815  -9.040650241545407  19.10946552890492  120.000000
1.20645  0.000000  0.000000  0.000000  -48.20915139196287  12.459554588831484  -2.992548449539841  46.950052952947225  14.473026285896507  15.42330342579499  3.871117397286189  58.7082219038084  -10.898041195892679  18.725841813063447  120.000000
1.2639  0.000000  0.000000  0.000000  -49.06789640556892  13.09328744328117  -1.068494586206095  47.21808590482577  14.874531528716926  15.582668662523158  4.428212237576084  60.04881347069  -12.343554078079878  18.365936280398174  120.000000
1.32135  0.000000  0.000000  0.000000  -49.759838133346896  13.61036954124124  0.8446043043973676  47.3809680159682  15.17838790430432  15.614052809891803  4.882648006268183  61.13862099554338  -13.39844879455351  18.034436116141695  120.000000
